<svg xmlns="http://www.w3.org/2000/svg" width="900" height="600" viewBox="0 0 900 600">
  <defs>
    <linearGradient id="bg" x1="0" y1="0" x2="1" y2="1">
      <stop offset="0" stop-color="#1a2140" stop-opacity="0.95"/>
      <stop offset="1" stop-color="#7c5cff" stop-opacity="0.75"/>
    </linearGradient>
    <linearGradient id="detail" x1="0" y1="0" x2="1" y2="0">
      <stop offset="0" stop-color="#ffffff" stop-opacity="0.7"/>
      <stop offset="1" stop-color="#ffffff" stop-opacity="0.25"/>
    </linearGradient>
    <filter id="shadow" x="-30%" y="-30%" width="160%" height="160%">
      <feDropShadow dx="0" dy="18" stdDeviation="16" flood-color="#000000" flood-opacity="0.35"/>
    </filter>
  </defs>
  <rect width="900" height="600" rx="44" fill="transparent"/>
  <path
    d="M170 360c70 5 140-14 220-62 60-36 95-56 140-70 46-14 96 0 128 30 25 23 42 32 89 45 58 16 93 40 105 78 12 39-4 78-46 102-64 38-179 64-372 64-122 0-192-10-256-25-55-13-83-56-74-92 6-24 26-58 66-70z"
    fill="url(#bg)"
    filter="url(#shadow)"
  />
  <path
    d="M245 346c88-2 170-34 264-96 37-24 71-41 112-47 39-5 73 6 106 34 16 14 40 27 72 37"
    fill="none"
    stroke="url(#detail)"
    stroke-width="18"
    stroke-linecap="round"
  />
  <path
    d="M232 395c78 16 214 34 386 6 90-14 170-43 220-70"
    fill="none"
    stroke="#ffffff"
    stroke-opacity="0.18"
    stroke-width="20"
    stroke-linecap="round"
  />
  <path d="M300 318c40-30 84-58 132-82" stroke="#2de2e6" stroke-opacity="0.35" stroke-width="10" stroke-linecap="round"/>
</svg>

