<svg xmlns="http://www.w3.org/2000/svg" width="900" height="600" viewBox="0 0 900 600">
  <defs>
    <linearGradient id="bg" x1="0" y1="0" x2="1" y2="1">
      <stop offset="0" stop-color="#ffffff" stop-opacity="0.88"/>
      <stop offset="1" stop-color="#cbb6ff" stop-opacity="0.85"/>
    </linearGradient>
    <linearGradient id="detail" x1="0" y1="0" x2="1" y2="0">
      <stop offset="0" stop-color="#0b0b10" stop-opacity="0.22"/>
      <stop offset="1" stop-color="#0b0b10" stop-opacity="0.10"/>
    </linearGradient>
    <filter id="shadow" x="-30%" y="-30%" width="160%" height="160%">
      <feDropShadow dx="0" dy="18" stdDeviation="16" flood-color="#000000" flood-opacity="0.22"/>
    </filter>
  </defs>
  <rect width="900" height="600" rx="44" fill="transparent"/>
  <path
    d="M165 385c76 10 150-10 246-66 58-34 92-52 130-62 52-14 95-1 126 24 22 18 41 29 82 43 62 21 102 49 112 86 10 37-9 71-46 92-56 32-164 56-340 58-158 2-270-26-315-58-30-22-35-63-12-92 12-15 29-22 47-25z"
    fill="url(#bg)"
    filter="url(#shadow)"
  />
  <path
    d="M265 350c120-18 222-60 292-112 25-18 52-28 84-30 28-2 58 10 90 36"
    fill="none"
    stroke="url(#detail)"
    stroke-width="18"
    stroke-linecap="round"
  />
  <path
    d="M240 430c120 18 255 20 406-10 76-14 138-36 190-60"
    fill="none"
    stroke="#0b0b10"
    stroke-opacity="0.10"
    stroke-width="20"
    stroke-linecap="round"
  />
  <path d="M425 285c30-14 58-24 84-30" stroke="#7c5cff" stroke-opacity="0.28" stroke-width="10" stroke-linecap="round"/>
</svg>

