<svg xmlns="http://www.w3.org/2000/svg" width="900" height="600" viewBox="0 0 900 600">
  <defs>
    <linearGradient id="bg" x1="0" y1="0" x2="1" y2="1">
      <stop offset="0" stop-color="#7c5cff" stop-opacity="0.9"/>
      <stop offset="1" stop-color="#2de2e6" stop-opacity="0.75"/>
    </linearGradient>
    <linearGradient id="shoe" x1="0" y1="0" x2="1" y2="1">
      <stop offset="0" stop-color="#ffffff" stop-opacity="0.92"/>
      <stop offset="1" stop-color="#ffffff" stop-opacity="0.55"/>
    </linearGradient>
    <filter id="shadow" x="-30%" y="-30%" width="160%" height="160%">
      <feDropShadow dx="0" dy="18" stdDeviation="16" flood-color="#000000" flood-opacity="0.35"/>
    </filter>
  </defs>
  <rect width="900" height="600" rx="44" fill="transparent"/>
  <circle cx="210" cy="170" r="220" fill="#ffffff" opacity="0.10"/>
  <circle cx="760" cy="120" r="260" fill="#ffffff" opacity="0.08"/>
  <path
    d="M170 360c70 5 140-14 220-62 60-36 95-56 140-70 46-14 96 0 128 30 25 23 42 32 89 45 58 16 93 40 105 78 12 39-4 78-46 102-64 38-179 64-372 64-122 0-192-10-256-25-55-13-83-56-74-92 6-24 26-58 66-70z"
    fill="url(#bg)"
    filter="url(#shadow)"
  />
  <path
    d="M245 346c88-2 170-34 264-96 37-24 71-41 112-47 39-5 73 6 106 34 16 14 40 27 72 37"
    fill="none"
    stroke="url(#shoe)"
    stroke-width="18"
    stroke-linecap="round"
  />
  <path
    d="M232 395c78 16 214 34 386 6 90-14 170-43 220-70"
    fill="none"
    stroke="#ffffff"
    stroke-opacity="0.30"
    stroke-width="20"
    stroke-linecap="round"
  />
  <path
    d="M330 290l48-28M386 274l52-30M446 252l56-32"
    stroke="#0b0b10"
    stroke-opacity="0.22"
    stroke-width="10"
    stroke-linecap="round"
  />
</svg>

