<svg xmlns="http://www.w3.org/2000/svg" width="1000" height="650" viewBox="0 0 1000 650">
  <defs>
    <linearGradient id="u" x1="0" y1="0" x2="1" y2="1">
      <stop offset="0" stop-color="#7c5cff"/>
      <stop offset="1" stop-color="#2de2e6"/>
    </linearGradient>
    <linearGradient id="s" x1="0" y1="0" x2="1" y2="0">
      <stop offset="0" stop-color="#ffffff" stop-opacity="0.88"/>
      <stop offset="1" stop-color="#ffffff" stop-opacity="0.52"/>
    </linearGradient>
    <filter id="soft" x="-20%" y="-20%" width="140%" height="140%">
      <feGaussianBlur stdDeviation="8"/>
    </filter>
  </defs>
  <rect width="1000" height="650" rx="40" fill="transparent"/>
  <path
    d="M195 390c70 5 140-14 220-62 60-36 95-56 140-70 46-14 96 0 128 30 25 23 42 32 89 45 58 16 93 40 105 78 12 39-4 78-46 102-64 38-179 64-372 64-122 0-192-10-256-25-55-13-83-56-74-92 6-24 26-58 66-70z"
    fill="url(#u)"
    opacity="0.96"
  />
  <path
    d="M272 376c88-2 170-34 264-96 37-24 71-41 112-47 39-5 73 6 106 34 16 14 40 27 72 37"
    fill="none"
    stroke="url(#s)"
    stroke-width="18"
    stroke-linecap="round"
  />
  <path
    d="M255 418c78 16 214 34 386 6 90-14 170-43 220-70"
    fill="none"
    stroke="#ffffff"
    stroke-opacity="0.35"
    stroke-width="20"
    stroke-linecap="round"
  />
  <circle cx="320" cy="332" r="18" fill="#ffffff" opacity="0.26" filter="url(#soft)"/>
  <circle cx="450" cy="280" r="24" fill="#ffffff" opacity="0.20" filter="url(#soft)"/>
</svg>

